REM MD5 7e9b4063262ff9c7011c2c9539373c4e
FILE "PlayStation Zone CD Vol. 13 (Germany).bin" BINARY
  TRACK 01 MODE2/2352
    INDEX 01 00:00:00
  TRACK 02 AUDIO
    INDEX 00 44:45:22
    INDEX 01 44:47:22
  TRACK 03 AUDIO
    INDEX 00 46:42:30
    INDEX 01 46:44:30
REM LEADOUT 51:25:47
